<?xml version="1.0" encoding="utf-8"?>
<!-- Generator: Adobe Illustrator 28.1.0, SVG Export Plug-In . SVG Version: 6.00 Build 0)  -->
<svg version="1.1" id="图层_1" xmlns="http://www.w3.org/2000/svg" xmlns:xlink="http://www.w3.org/1999/xlink" x="0px" y="0px"
	 viewBox="0 0 3300.8 670.8" style="enable-background:new 0 0 3300.8 670.8;" xml:space="preserve">
<g>
	<path d="M912.2,330.6V151.8h39.3v178.7H912.2z"/>
	<path d="M1113.1,330.6l-86.6-113.6v113.6h-38.8V151.8h36.3l83.7,110v-110h38.8v178.7H1113.1z"/>
	<path d="M1307.4,330.6l-86.6-113.6v113.6H1182V151.8h36.3l83.7,110v-110h38.8v178.7H1307.4z"/>
	<path d="M1550,277.1c-4.8,11.2-11.4,20.9-19.8,29.4c-8.4,8.4-18.5,15.1-30.1,19.9c-11.7,4.9-24.4,7.3-38.2,7.3
		c-13.8,0-26.5-2.4-38-7.3c-11.6-4.9-21.6-11.4-30-19.7c-8.4-8.3-15-18-19.7-29.1c-4.7-11.1-7-23.1-7-35.9v-0.5
		c0-12.8,2.4-24.7,7.1-35.9c4.8-11.1,11.4-20.9,19.8-29.4c8.4-8.4,18.5-15.1,30.1-19.9c11.7-4.9,24.4-7.3,38.2-7.3
		c13.8,0,26.5,2.4,38,7.3c11.6,4.9,21.6,11.4,30,19.7c8.4,8.3,15,18,19.7,29.1c4.7,11.2,7,23.1,7,35.9v0.5
		C1557.1,254,1554.7,265.9,1550,277.1z M1516,241.2c0-7.7-1.3-14.9-4-21.7c-2.6-6.8-6.4-12.8-11.2-17.9c-4.9-5.1-10.6-9.1-17.2-12.1
		c-6.6-3-13.9-4.5-21.7-4.5c-8,0-15.3,1.4-21.8,4.3c-6.6,2.9-12.2,6.9-16.9,12c-4.7,5.1-8.3,11-11,17.7c-2.6,6.7-4,13.9-4,21.6v0.5
		c0,7.7,1.3,14.9,4,21.7c2.6,6.8,6.4,12.8,11.2,17.9c4.9,5.1,10.6,9.2,17.1,12.1c6.6,3,13.8,4.5,21.8,4.5c7.8,0,15.1-1.4,21.7-4.3
		c6.6-2.9,12.3-6.9,17-12c4.7-5.1,8.3-11,11-17.7c2.6-6.7,4-13.9,4-21.6V241.2z"/>
	<path d="M1663.3,331.8h-34.7l-72.3-180h43.4l46.7,125.9l46.7-125.9h42.4L1663.3,331.8z"/>
	<path d="M1866.2,330.6l-16.3-40.1h-75.6l-16.3,40.1h-40.1l76.6-180h36.3l76.6,180H1866.2z M1812,197.8l-23.7,58h47.5L1812,197.8z"
		/>
	<path d="M1982.3,188.1v142.5H1943V188.1h-54.4v-36.3h148.1v36.3H1982.3z"/>
	<path d="M2054.6,330.6V151.8h134.5v35h-95.7v36.3h84.3v35h-84.3v37.5h97v35H2054.6z"/>
	<path d="M2331.4,187.3v38.6h85.3v35.5h-85.3v69.2H2292V151.8h136.1v35.5H2331.4z"/>
	<path d="M2598.1,288.2c-3.7,10-8.9,18.4-15.7,25.1c-6.8,6.7-15.1,11.7-24.8,15.1c-9.7,3.3-20.5,5-32.4,5c-24,0-42.9-6.6-56.7-19.9
		c-13.8-13.3-20.7-33.1-20.7-59.5V151.8h39.3v101.1c0,14.6,3.4,25.7,10.2,33.1c6.8,7.4,16.3,11.1,28.3,11.1
		c12.1,0,21.5-3.6,28.3-10.7c6.8-7.1,10.2-17.9,10.2-32.2V151.8h39.3v100.8C2603.6,266.3,2601.8,278.1,2598.1,288.2z"/>
	<path d="M2714,188.1v142.5h-39.3V188.1h-54.4v-36.3h148.1v36.3H2714z"/>
	<path d="M2935.3,288.2c-3.7,10-8.9,18.4-15.7,25.1c-6.8,6.7-15.1,11.7-24.8,15.1c-9.7,3.3-20.5,5-32.4,5c-24,0-42.9-6.6-56.7-19.9
		c-13.8-13.3-20.7-33.1-20.7-59.5V151.8h39.3v101.1c0,14.6,3.4,25.7,10.2,33.1c6.8,7.4,16.3,11.1,28.3,11.1
		c12.1,0,21.5-3.6,28.3-10.7c6.8-7.1,10.2-17.9,10.2-32.2V151.8h39.3v100.8C2940.8,266.3,2939,278.1,2935.3,288.2z"/>
	<path d="M3082.9,330.6l-38.3-57.2h-30.9v57.2h-39.3V151.8h81.7c21.3,0,37.8,5.2,49.7,15.6c11.8,10.4,17.7,24.9,17.7,43.4v0.5
		c0,14.5-3.5,26.3-10.6,35.4c-7.1,9.1-16.3,15.8-27.7,20l43.7,63.8H3082.9z M3083.7,212.9c0-8.5-2.7-14.9-8.2-19.1
		c-5.4-4.3-13-6.4-22.7-6.4h-39.1v51.3h39.8c9.7,0,17.1-2.3,22.3-6.9c5.2-4.6,7.8-10.7,7.8-18.4V212.9z"/>
	<path d="M3151.2,330.6V151.8h134.5v35H3190v36.3h84.3v35H3190v37.5h97v35H3151.2z"/>
	<path d="M1012.7,432.5h-87.2v51.4h77.9v14.8h-77.9v62.7h-16.2v-144h103.4V432.5z"/>
	<path d="M1166.9,517.8c-3.6,9-8.6,16.9-15,23.8c-6.4,6.9-14.2,12.3-23.2,16.3c-9,4-19.1,6.1-30,6.1c-11,0-20.9-2-29.9-6
		c-9-4-16.7-9.4-23.1-16.1c-6.4-6.8-11.4-14.7-14.9-23.7c-3.5-9-5.2-18.5-5.2-28.5c0-10,1.8-19.5,5.3-28.5c3.6-9,8.6-16.9,15-23.8
		c6.4-6.9,14.2-12.3,23.2-16.3c9-4,19.1-6.1,30-6.1c11,0,20.9,2,29.9,6c9,4,16.7,9.4,23.1,16.1c6.4,6.8,11.4,14.7,14.9,23.7
		c3.5,9,5.2,18.5,5.2,28.5C1172.2,499.3,1170.5,508.8,1166.9,517.8z M1151.2,466.4c-2.8-7.3-6.8-13.6-11.8-18.9
		c-5.1-5.3-11.1-9.6-18-12.8c-6.9-3.2-14.5-4.7-22.7-4.7c-8.2,0-15.8,1.5-22.7,4.6c-6.9,3.1-12.9,7.3-17.8,12.6
		c-4.9,5.3-8.8,11.6-11.6,18.8c-2.8,7.2-4.2,14.9-4.2,23.1c0,8.2,1.4,16,4.2,23.2c2.8,7.3,6.8,13.6,11.8,18.9
		c5.1,5.3,11.1,9.6,18,12.8c6.9,3.2,14.5,4.7,22.7,4.7s15.8-1.5,22.7-4.6c6.9-3.1,12.9-7.3,17.8-12.6c4.9-5.3,8.8-11.6,11.6-18.8
		c2.8-7.2,4.2-14.9,4.2-23.1C1155.4,481.5,1154,473.7,1151.2,466.4z"/>
	<path d="M1316.6,500c0,10.6-1.4,19.8-4.3,27.8c-2.9,8-7,14.6-12.2,19.9c-5.3,5.3-11.6,9.4-18.9,12c-7.3,2.7-15.5,4-24.6,4
		c-8.9,0-17-1.3-24.4-4c-7.3-2.7-13.6-6.6-18.9-11.9c-5.3-5.3-9.4-11.8-12.2-19.6c-2.9-7.8-4.3-16.8-4.3-26.9v-83.7h16.2v82.7
		c0,15.6,3.9,27.6,11.6,36c7.7,8.4,18.5,12.5,32.4,12.5c13.3,0,23.9-4,31.7-11.9c7.8-8,11.7-19.8,11.7-35.6v-83.7h16.2V500z"/>
	<path d="M1455.1,417.5h15.8v144h-13l-93-118v118h-15.8v-144h15.2l90.7,115.4V417.5z"/>
	<path d="M1626.2,517.8c-3.7,8.8-8.9,16.5-15.7,22.9c-6.8,6.4-14.9,11.5-24.3,15.2c-9.4,3.7-19.7,5.6-31,5.6h-50v-144h50
		c11.2,0,21.6,1.8,31,5.5c9.4,3.6,17.5,8.7,24.3,15.1c6.8,6.4,12,14.1,15.7,22.8c3.7,8.8,5.6,18.2,5.6,28.4
		C1631.7,499.4,1629.9,508.9,1626.2,517.8z M1610.6,467.3c-2.8-7-6.8-13.1-11.9-18.2c-5.1-5.1-11.4-9.2-18.8-12.1
		c-7.4-2.9-15.6-4.4-24.7-4.4h-33.7v113.9h33.7c9,0,17.3-1.4,24.7-4.3c7.4-2.9,13.7-6.9,18.8-12c5.1-5.1,9.1-11.1,11.9-18
		c2.8-6.9,4.2-14.3,4.2-22.4C1614.8,481.7,1613.4,474.3,1610.6,467.3z"/>
	<path d="M1781.6,561.5h-17.5l-16.9-38h-78.4l-17.1,38h-16.7l65.6-145h15.2L1781.6,561.5z M1708.2,435.6l-32.9,73.4h65.6
		L1708.2,435.6z"/>
	<path d="M1834.2,561.5H1818V432.5h-48.3v-15h112.9v15h-48.3V561.5z"/>
	<path d="M1919.6,417.5v144h-16.2v-144H1919.6z"/>
	<path d="M2088.9,517.8c-3.6,9-8.6,16.9-15,23.8c-6.4,6.9-14.2,12.3-23.2,16.3c-9,4-19.1,6.1-30,6.1c-11,0-20.9-2-29.9-6
		c-9-4-16.7-9.4-23.1-16.1c-6.4-6.8-11.4-14.7-14.9-23.7c-3.5-9-5.2-18.5-5.2-28.5c0-10,1.8-19.5,5.3-28.5c3.6-9,8.6-16.9,15-23.8
		c6.4-6.9,14.2-12.3,23.2-16.3c9-4,19.1-6.1,30-6.1c11,0,20.9,2,29.9,6c9,4,16.7,9.4,23.1,16.1c6.4,6.8,11.4,14.7,14.9,23.7
		c3.5,9,5.2,18.5,5.2,28.5C2094.2,499.3,2092.5,508.8,2088.9,517.8z M2073.2,466.4c-2.8-7.3-6.8-13.6-11.8-18.9
		c-5.1-5.3-11.1-9.6-18-12.8c-6.9-3.2-14.5-4.7-22.7-4.7c-8.2,0-15.8,1.5-22.7,4.6c-6.9,3.1-12.9,7.3-17.8,12.6
		c-4.9,5.3-8.8,11.6-11.6,18.8c-2.8,7.2-4.2,14.9-4.2,23.1c0,8.2,1.4,16,4.2,23.2c2.8,7.3,6.8,13.6,11.8,18.9
		c5.1,5.3,11.1,9.6,18,12.8c6.9,3.2,14.5,4.7,22.7,4.7s15.8-1.5,22.7-4.6c6.9-3.1,12.9-7.3,17.8-12.6c4.9-5.3,8.8-11.6,11.6-18.8
		c2.8-7.2,4.2-14.9,4.2-23.1C2077.4,481.5,2076,473.7,2073.2,466.4z"/>
	<path d="M2226.6,417.5h15.8v144h-13l-93-118v118h-15.8v-144h15.2l90.7,115.4V417.5z"/>
</g>
<path d="M347.1,3.5C163.5,3.5,14.6,152.4,14.6,336s148.9,332.5,332.5,332.5S679.6,519.6,679.6,336S530.8,3.5,347.1,3.5z
	 M428.3,395.1c0,0-250.5,31-180.8,198.9c0,0-129.1-149.2,5.2-242.1c0,0,51.7-46.5,202.1-70.4L428.3,395.1z M469,235.6
	c-148.5,2.6-258.3,87.8-258.3,87.8c76.2-184.7,291.9-209.9,291.9-209.9L469,235.6z"/>
</svg>
